<?xml version="1.0" standalone="no"?>
<!DOCTYPE svg PUBLIC "-//W3C//DTD SVG 20010904//EN"
 "http://www.w3.org/TR/2001/REC-SVG-20010904/DTD/svg10.dtd">
<svg version="1.0" xmlns="http://www.w3.org/2000/svg"
 width="1640.000000pt" height="1640.000000pt" viewBox="0 0 1640.000000 1640.000000"
 preserveAspectRatio="xMidYMid meet">
<metadata>
Created by potrace 1.11, written by Peter Selinger 2001-2013
</metadata>
<g transform="translate(0.000000,1640.000000) scale(0.100000,-0.100000)"
fill="#000000" stroke="none">
<path d="M7947 11203 c-1 -1 -65 -4 -142 -8 -164 -7 -175 -8 -280 -33 -178
-43 -325 -108 -484 -216 -103 -70 -119 -81 -184 -138 -18 -15 -38 -28 -44 -28
-7 0 -13 -4 -13 -8 0 -4 -25 -25 -55 -47 -30 -22 -55 -43 -55 -47 0 -5 -4 -8
-10 -8 -9 0 -28 -13 -64 -45 -6 -5 -38 -30 -71 -55 -75 -56 -76 -57 -101 -78
-12 -9 -36 -28 -54 -42 -18 -14 -86 -65 -150 -115 -64 -49 -132 -101 -150
-115 -65 -50 -235 -181 -250 -193 -8 -7 -41 -31 -72 -53 -32 -23 -55 -44 -51
-48 3 -3 0 -6 -8 -6 -8 0 -26 -10 -39 -22 -25 -23 -64 -53 -230 -178 -47 -35
-87 -67 -90 -70 -3 -3 -32 -25 -65 -50 -33 -25 -69 -53 -80 -63 -11 -10 -33
-26 -49 -34 -28 -15 -39 -17 -121 -28 -22 -3 -51 -7 -64 -10 -30 -6 -131 -18
-153 -19 -10 0 -18 -3 -18 -6 0 -3 -12 -5 -27 -6 -16 0 -53 -4 -83 -8 -30 -4
-66 -9 -80 -11 -14 -2 -38 -5 -55 -8 -16 -3 -55 -9 -85 -12 -30 -3 -62 -8 -70
-10 -16 -4 -68 -12 -140 -20 -25 -3 -54 -7 -66 -9 -12 -2 -45 -7 -74 -11 -29
-4 -62 -9 -74 -11 -11 -2 -38 -6 -61 -9 -74 -10 -120 -17 -150 -22 -16 -3 -41
-6 -55 -8 -86 -10 -129 -16 -147 -19 -11 -3 -44 -7 -74 -11 -30 -3 -61 -8 -69
-10 -8 -2 -36 -7 -62 -10 -47 -5 -101 -13 -148 -20 -14 -3 -61 -9 -105 -15
-44 -6 -93 -13 -110 -16 -27 -5 -47 -7 -135 -18 -14 -2 -61 -9 -105 -16 -43
-6 -93 -13 -110 -15 -16 -2 -41 -6 -55 -9 -14 -3 -45 -7 -70 -10 -25 -3 -54
-8 -65 -10 -11 -2 -49 -7 -85 -11 -36 -4 -67 -8 -70 -10 -3 -1 -30 -6 -61 -9
-31 -4 -65 -8 -76 -10 -11 -3 -46 -7 -78 -10 -32 -4 -61 -8 -64 -10 -3 -2 -35
-7 -71 -11 -90 -11 -90 -11 -135 -19 -22 -3 -58 -8 -80 -11 -22 -2 -49 -6 -61
-9 -12 -2 -45 -7 -75 -11 -30 -3 -65 -8 -79 -10 -14 -2 -43 -7 -65 -9 -22 -3
-51 -8 -65 -11 -14 -3 -45 -7 -70 -10 -25 -3 -58 -7 -75 -10 -55 -9 -89 -14
-140 -20 -27 -4 -61 -9 -75 -11 -28 -6 -73 -11 -143 -18 -26 -3 -52 -8 -56
-10 -5 -3 -35 -8 -67 -11 -33 -2 -70 -7 -84 -10 -14 -3 -43 -7 -65 -10 -107
-13 -206 -49 -257 -93 -10 -8 -18 -12 -18 -8 0 7 -73 -65 -105 -105 -34 -41
-72 -121 -88 -181 -18 -71 -15 -203 6 -278 9 -30 21 -73 27 -95 7 -22 18 -60
27 -85 8 -25 16 -52 18 -60 2 -8 26 -89 53 -180 27 -91 57 -192 66 -225 9 -33
20 -67 23 -75 3 -8 7 -20 8 -26 4 -15 45 -152 56 -184 13 -40 60 -198 64 -217
2 -10 8 -31 15 -48 6 -16 10 -30 9 -30 -1 0 12 -45 29 -100 17 -55 38 -125 47
-157 9 -31 21 -58 28 -60 7 -2 209 -3 449 -2 l436 1 -1 -131 c-2 -192 14 -313
60 -461 27 -85 110 -268 124 -273 5 -2 9 -10 9 -18 0 -8 5 -14 10 -14 6 0 10
-5 10 -11 0 -26 225 -269 249 -269 5 0 11 -4 13 -9 9 -25 286 -176 343 -187 6
-1 36 -9 69 -19 62 -18 62 -18 116 -28 76 -15 98 -17 190 -23 52 -3 100 -6
105 -6 22 0 162 13 190 19 17 3 39 7 50 8 11 2 20 4 20 5 0 2 18 6 55 14 91
19 358 141 368 167 2 5 8 9 14 9 16 0 137 99 201 165 119 122 194 237 273 420
13 31 64 199 64 213 0 1 0 3 1 5 16 49 29 297 18 359 -3 20 -2 43 2 50 7 11
650 13 3687 14 l3678 0 -2 -155 c-2 -136 3 -208 21 -298 3 -13 7 -35 10 -50 3
-16 10 -41 15 -58 6 -16 11 -34 12 -40 7 -44 116 -267 153 -312 6 -6 37 -45
69 -85 61 -75 194 -198 215 -198 6 0 11 -4 11 -8 0 -5 16 -17 35 -28 19 -10
35 -23 35 -28 0 -5 3 -6 6 -3 4 4 19 -2 34 -13 22 -16 102 -56 130 -65 13 -5
47 -18 65 -25 28 -13 124 -40 160 -46 17 -2 57 -10 91 -17 50 -11 286 -15 379
-7 109 10 361 92 447 147 21 12 40 23 43 23 8 0 69 44 73 53 2 4 8 7 14 7 5 0
15 6 23 13 7 6 28 23 46 37 72 55 229 225 229 248 0 6 7 12 15 16 8 3 15 11
15 17 0 7 6 20 14 28 20 24 76 131 68 131 -4 0 -2 4 4 8 12 7 70 152 78 193 2
13 11 53 20 89 8 36 17 90 21 120 6 63 7 230 1 276 l-5 30 922 0 c507 -1 942
2 966 6 95 17 190 88 236 178 19 37 36 114 37 165 1 59 -1 408 -2 435 -1 19
-2 40 -2 45 0 6 1 100 1 210 0 110 0 214 1 230 1 17 2 35 2 40 0 6 -1 129 -1
275 0 299 0 302 -4 460 -3 103 -6 121 -31 173 -36 72 -109 140 -179 163 -61
21 -47 18 -127 28 -36 4 -74 10 -85 12 -23 4 -95 14 -145 20 -19 2 -46 6 -60
9 -14 2 -43 7 -65 10 -23 3 -50 7 -61 9 -12 2 -45 7 -75 11 -30 3 -65 8 -79
10 -14 2 -45 7 -70 10 -25 4 -57 8 -71 11 -27 4 -91 13 -139 19 -14 2 -47 6
-75 10 -27 3 -57 8 -65 10 -8 2 -42 7 -75 11 -33 3 -69 8 -80 10 -11 2 -38 6
-60 9 -22 3 -49 7 -61 9 -12 2 -43 7 -70 10 -27 4 -62 8 -79 11 -16 2 -50 7
-75 10 -25 4 -56 9 -70 11 -14 3 -38 6 -55 8 -26 3 -64 9 -225 32 -19 3 -53 7
-75 10 -22 3 -51 8 -65 10 -14 3 -41 7 -60 9 -54 6 -102 13 -135 19 -16 3 -50
7 -75 10 -25 3 -56 8 -70 10 -14 3 -45 7 -70 10 -25 3 -55 8 -67 10 -12 3 -48
7 -80 11 -32 3 -65 8 -73 10 -8 2 -33 7 -55 9 -22 3 -56 8 -75 11 -19 2 -57 7
-85 10 -27 4 -57 8 -66 11 -9 2 -36 6 -60 8 -121 11 -83 -19 -446 352 -714
733 -975 997 -1029 1042 -84 72 -224 157 -344 210 -95 42 -257 90 -327 98 -25
2 -50 7 -55 10 -15 10 -240 16 -443 13 -5 0 -36 0 -67 1 -31 1 -61 -1 -67 -5
-6 -3 -11 -1 -11 5 0 6 -4 8 -10 5 -5 -3 -40 -6 -77 -5 -100 1 -159 1 -241 0
-41 -1 -76 1 -78 3 -3 3 -21 1 -40 -3 -20 -5 -34 -4 -34 2 0 5 -4 6 -10 3 -5
-3 -40 -6 -77 -5 -100 1 -159 1 -241 0 -41 -1 -76 1 -78 3 -3 3 -21 1 -40 -3
-20 -5 -34 -4 -34 2 0 5 -4 6 -10 3 -5 -3 -40 -6 -77 -5 -100 1 -159 1 -241 0
-41 -1 -76 1 -78 3 -3 3 -21 1 -40 -3 -20 -5 -34 -4 -34 2 0 5 -4 6 -10 3 -5
-3 -40 -6 -77 -5 -100 1 -159 1 -241 0 -41 -1 -76 1 -78 3 -3 3 -21 1 -40 -3
-20 -5 -34 -4 -34 2 0 5 -4 6 -10 3 -9 -6 -99 -7 -193 -2 -27 1 -49 1 -50 0z
m798 -545 c5 -4 8 -825 6 -1113 l-1 -50 -1452 0 c-1281 0 -1452 2 -1456 15 -3
8 -1 12 2 8 4 -3 15 0 24 8 10 7 81 62 158 121 205 157 204 156 238 185 17 15
36 28 43 28 6 0 13 4 15 9 2 5 44 39 93 77 50 37 95 73 102 79 7 5 31 25 55
42 99 75 465 356 484 372 11 10 49 38 85 62 35 24 66 46 69 49 15 15 153 74
203 86 9 2 27 6 40 9 12 4 51 9 87 13 76 8 1197 8 1205 0z m1955 -2 c91 -13
262 -96 292 -140 4 -6 8 -7 8 -3 0 25 190 -219 190 -244 0 -5 5 -9 10 -9 6 0
10 -4 10 -10 0 -5 26 -49 58 -97 32 -48 81 -124 110 -168 28 -44 55 -85 59
-91 41 -56 72 -124 76 -169 4 -41 -8 -99 -24 -119 -40 -48 -61 -65 -104 -86
l-50 -25 -1083 0 c-596 0 -1086 3 -1088 7 -4 6 -6 142 -4 218 1 8 -1 31 -3 50
-2 19 0 40 5 47 5 7 5 14 -1 17 -7 4 -7 15 -1 30 5 13 6 26 3 29 -9 10 -10 72
-1 84 5 7 5 14 -1 17 -7 4 -7 15 -1 30 5 13 6 26 3 29 -9 10 -10 72 -1 84 5 7
5 14 -1 17 -7 4 -7 15 -1 30 5 13 6 26 4 29 -10 10 -12 77 -3 83 5 3 7 10 4
15 -8 12 -10 288 -2 295 3 3 3 12 0 20 -15 40 -25 39 748 38 409 -1 764 -4
789 -8z"/>
</g>
</svg>
